<svg version="1" xmlns="http://www.w3.org/2000/svg" width="594.667" height="594.667" viewBox="0 0 446.000000 446.000000"><path d="M230.3 14.8c-6.8.1-12.3.6-12.3 1s-1.5.7-3.2.7c-7.5-.2-33.6 4.5-40.8 7.3-.8.3-2.2.7-3 .8-2.8.4-7 2.3-7 3.3 0 .5 1.2 1.1 2.8 1.4 2.6.5 6.5 1.5 15 3.7 2 .5 5.1 1.2 6.7 1.5 1.7.4 3.9 1 5 1.5 1.1.4 4 1.3 6.5 2s5.7 1.7 7.1 2.2c1.4.5 3.5 1 4.7 1.1 1.2.1 2.2.5 2.2.9s.7.8 1.6.8c.8 0 4.9 1.1 9 2.5 4.2 1.4 8 2.2 8.6 1.9.7-.4.8-.2.4.4-.4.8 0 1.2 1.1 1.2s2.3.4 2.9 1c.5.5 1.8 1.1 2.9 1.3 1.1.1 3.5 1 5.4 2 1.9.9 4.2 1.7 5.3 1.7 1 0 1.8.4 1.8 1 0 .5 1.1 1 2.4 1 1.4 0 2.8.4 3.1 1 .3.5 1.3 1 2.1 1s4.3 1.3 7.7 2.9c3.4 1.6 7.7 3.5 9.5 4.2 1.7.8 3.2 1.7 3.2 2.1 0 .5.7.8 1.5.8s3 .9 5 2 4.2 2 4.9 2c.8 0 1.6.4 1.8.8.2.4 2.8 2 5.8 3.5s7.8 4.1 10.5 5.8c2.8 1.6 5.8 3.2 6.8 3.6.9.3 1.7.9 1.7 1.4 0 .5.7.9 1.5.9s1.5.4 1.5 1c0 .5.7 1 1.5 1s1.5.3 1.5.8c0 .4 1.3 1.3 2.8 2 1.6.6 3.8 2.1 5 3.2 1.2 1.1 2.6 2 3.2 2 .5 0 1 .4 1 1 0 .5.7 1 1.5 1s1.5.4 1.5 1c0 .5.7 1 1.5 1s1.5.4 1.5 1c0 .5.6 1 1.3 1 2 0 1.9 2-.7 14-1.5 6.8-2.5 10.8-3.4 13.7-.6 1.7-.8 3.4-.4 3.7.3.3.1.6-.4.6-.6 0-1.6 2.4-2.3 5.2-.8 2.9-1.7 5.7-2.1 6.3-.4.5-1.3 3.1-2.1 5.7-.7 2.7-1.7 4.8-2.1 4.8-.4 0-.7.3-.6.7.3 1.4-2.3 9.6-3.9 12-.8 1.2-1.3 2.3-1 2.3.3 0 0 1.2-.8 2.7-.8 1.5-1.2 3-.9 3.5.3.4.1.8-.4.8-.4 0-1.9 2.4-3.2 5.2-1.3 2.9-2.8 5.6-3.4 6-.6.4-.7.8-.3.8.5 0-.5 2.4-2.2 5.4-1.7 2.9-3.1 6.1-3.1 7 0 .9-.4 1.6-.9 1.6-1 0-2.7 3.9-2.3 5.2.1.5-.2.8-.6.8-.5 0-1.9 2.3-3.2 5-1.3 2.8-2.7 5-3.2 5-.4 0-.8.5-.8 1 0 .6-1.8 4-4 7.6-2.2 3.6-4 7-4 7.5s-.4.9-1 .9c-.5 0-1 .7-1 1.5s-.5 1.5-1.2 1.5c-.6 0-.9.3-.5.6.3.4.1 1.2-.6 2-3 3.4-3.7 4.4-3 4.4.4 0 0 .5-.9 1.1-1 .5-1.8 1.4-1.8 1.9 0 .8-9 14.2-11.7 17.5-3 3.6-5.3 7.6-4.9 8.4.7 1 5.4.2 6.2-1 .3-.5 1.3-.9 2.2-.9 1.6 0 18.1-7.8 19.2-9.1.3-.3 2-1.2 3.8-2 1.7-.8 3.2-1.7 3.2-2.1 0-.5.6-.8 1.3-.8.7 0 2.3-.9 3.5-2 1.2-1.1 2.6-2 3.2-2 .6 0 2-.8 3.1-1.8 1-1.1 3.2-2.5 4.7-3.3 2.7-1.4 5.2-3.2 7.7-5.6.8-.7 1.6-1.3 2-1.3.3 0 1.7-1 3-2.3 1.3-1.2 3.8-3.3 5.6-4.7 1.7-1.4 4.2-3.5 5.5-4.8 1.3-1.2 2.5-2.2 2.8-2.2.9 0 8.4-7 22.5-21.1 14.1-14 16.2-16.3 22.1-23.9 1.9-2.5 4.2-5.2 5.2-6.1 1-.9 1.5-1.9 1.1-2.3-.3-.3-.1-.6.5-.6.7 0 1.2-.7 1.2-1.5s.5-1.5 1-1.5c.6 0 1-.5 1-1.1 0-.6.6-1.7 1.3-2.4 1.9-2.2 3.1-3.7 5.7-7.5 1.3-1.9 2.7-3.7 3.1-4 .3-.3 1.2-1.6 1.9-2.9.7-1.4 1.7-3 2.1-3.5 1.8-2.2 5.8-8.6 5.4-8.6-.2 0 .6-1.5 1.8-3.4 3.6-5.5 6.1-10.1 5.9-10.9-.1-.4.2-.7.8-.7.5 0 1-.9 1-2s.5-2 1-2c.6 0 1-.4 1-1 0-.5 1.4-3.9 3-7.3 1.7-3.5 3-6.8 3-7.4 0-.5 1-2.9 2.1-5.3 1.2-2.4 2.2-4.9 2.3-5.4.1-.6.4-1.6.8-2.1.7-1.2 4.5-14.9 5.2-18.8.3-1.5.8-3.6 1.1-4.8.5-1.5-.4-2.9-3.7-5.9-2.4-2.2-4.9-4-5.5-4-.7 0-1.3-.4-1.3-.8 0-.7-4.3-3.3-6-3.6-1.4-.3-7-4.1-7-4.8 0-.4-.9-.8-2-.8s-2-.5-2-1c0-.6-.9-1-1.9-1-1.1 0-2.1-.3-2.3-.8-.1-.4-2.5-1.8-5.3-3.1-2.7-1.3-6.7-3.2-8.8-4.2-2.2-1-4.4-1.9-5.1-1.9-.7 0-3.1-.9-5.4-2-2.2-1.1-4.6-2-5.2-2-.5 0-1.9-.5-3-1-1.1-.6-2.9-1.5-4-2-1.1-.6-2.9-1-3.9-1-1.1 0-2.3-.5-2.6-1-.3-.6-1.7-1-3-1s-2.6-.4-2.9-.9c-.3-.5-2-1.1-3.8-1.4-1.8-.2-6-1.2-9.2-2.1-3.3-.9-6.7-1.8-7.5-2-3.8-.7-7.7-1.8-9.6-2.6-1.1-.5-4-1.2-6.5-1.5-8.8-1.2-14.5-2.2-16-2.8-.8-.3-3.7-.8-6.5-1.1-2.7-.3-5.9-.7-7-1-1.1-.3-5.4-.8-9.5-1-4.1-.3-11.3-.7-16-1.1-11.3-.8-27.7-1.1-42.7-.7z"/><path d="M65.9 47.4c-.3.3-3.9.8-8 1-9.7.6-29.2 3.9-33.7 5.7-1.3.5-3.3.9-4.6.9-1.2 0-2.6.3-3 .7-.3.4-1.4.8-2.4.9-4.4.7-11.9 3.6-11.9 4.7 0 .7-.4 3.4-.9 6.2-1.6 9.2-.9 46 1 56.2.3 1.1.8 4.3 1.1 7 .4 2.6 1.4 7.7 2.2 11.3.8 3.6 1.6 7.3 1.8 8.3.2.9.6 2.1 1 2.6.3.5.7 2.2.9 3.8.2 2.4 3.7 14.6 5.4 19.3.3.8.6 1.9.7 2.5.7 2.8 8.3 21.9 11.4 29 9.1 20 25.7 49.6 32.1 57.2.5.7 1 1.6 1 2 0 .4 1.6 2.5 3.5 4.7 1.9 2.1 3.5 4.1 3.5 4.5 0 .3 1.4 2.2 3.1 4.1 1.7 1.9 5.4 6.2 8.2 9.4 2.9 3.3 6 6.7 7.1 7.5 1.8 1.6 3 2.8 5.2 5.3 2.7 3.1 9.4 7.8 11.1 7.8.9 0 .9-.8.2-3.3-.6-1.7-1.2-3.9-1.4-4.7-.2-.8-1.1-4-2-7-.9-3-1.8-6.6-2.1-8-.2-1.4-.7-3.2-1-4-.3-.8-.8-2.6-1-4-.3-1.4-1.4-6.1-2.4-10.5s-2.1-9.4-2.3-11c-1.1-6.7-1.8-10.1-2.4-12.5-.4-1.4-.7-3.2-.8-4-.1-.9-.6-3.8-1-6.5-.4-2.8-.9-6.4-1-8-.2-1.7-.6-5.3-1-8-4-28.1-3.5-68 1.1-92.9.4-2.5 1.9-3.9 4.1-4.2 2.7-.4 9.6-2.5 11.5-3.5 1-.5 2.9-.9 4.2-.9 1.4 0 2.8-.5 3.1-1 .3-.6 1.7-1 3-1s3.4-.4 4.7-.9c2.7-1.1 16-4.1 20.3-4.7 1.7-.2 5.3-.8 8-1.4 7.6-1.4 11.3-2 19-2.6 3.9-.2 7.7-.8 8.5-1.1.8-.3 5.1-.8 9.5-1 4.4-.2 10.7-.8 14-1.3 7.7-1.2 72.4-.8 82.1.4 7.8 1 9.5.6 7.3-1.6S273.2 93 272.2 93c-.6 0-1.2-.3-1.4-.8-.7-1.5-24.9-13.6-36.5-18.3-1.3-.5-3.3-1.3-4.5-1.8-1.3-.5-3.9-1.4-5.8-2.1-1.9-.7-4.4-1.6-5.5-2.2-1.2-.5-2.7-1-3.5-1.2-.8-.2-2.2-.6-3-.9-.8-.4-2.4-.8-3.5-1-1.1-.2-2.7-.7-3.5-1-3.7-1.5-26.8-7.3-34.8-8.7-2.9-.5-5.6-1.1-6.1-1.4-.4-.3-2.5-.6-4.7-.8-2.1-.1-4.1-.5-4.4-.9-.3-.4-3.6-.9-7.5-1.2-3.8-.3-7.9-.8-9-1.1-5.1-1.4-71.3-3.4-72.6-2.2z"/><path d="M177.4 141.8c-1.2.2-3.2 1.4-4.5 2.8l-2.4 2.6-.1 28.1-.2 28.1 2.8 2.8c3.1 3 2.7 3 20.3 2.9 5.9-.1 10.7.2 10.7.7 0 .4-1.1 2.5-2.5 4.7-2.9 4.8-2.9 4.9-.9 6.9 1.3 1.3 4.4 1.6 18.2 1.6 20.6 0 21.6-.2 20.8-4.3-.3-1.7-1.2-3.8-2-4.6-.7-.9-1.6-2.4-1.9-3.3-.6-1.6.5-1.8 13.3-1.7 7.7 0 14.8-.5 15.8-1 4.3-2.3 4.7-5.4 4.7-33.2-.1-17.7-.5-27.1-1.3-28.5-2.7-5-1.7-4.9-46.6-4.9-23.2 0-43.1.1-44.2.3zm84.4 7.6c1.1 1.8.9 51.7-.3 52.4-1.3.9-82.3.9-83.7.1-1.4-.9-1.3-52 .2-52.9 1.9-1.2 83-.8 83.8.4zm-33.2 62.8c.9 1.6 1.3 3.2 1.1 3.4-.2.3-5.1.3-10.8.2-9.8-.3-10.2-.4-8.5-2.1 1-.9 1.4-1.7 1-1.7-.3 0-.1-.7.6-1.5.9-1.1 3.1-1.5 8.1-1.4 6.7.1 7 .2 8.5 3.1z"/><path d="M223.7 158.3c-1.3 1-6.7 13.3-6.7 15.2 0 .3-1.1 3.1-2.5 6.2s-2.7 7.2-2.8 9.2c-.2 3.2.1 3.6 2.4 3.9 2.4.3 2.8-.3 5.4-7.5 1.6-4.3 3.5-8.9 4.2-10.3.7-1.4 1.3-3 1.3-3.6 0-.6.6-2.4 1.4-4 2.5-5.3 2.7-7.9.7-9.1-1.4-.9-2.2-.9-3.4 0zM193 167.6c-9.4 4.9-12.1 7.5-9.9 9.6 1.7 1.6 18.4 9.8 21 10.3 1.2.2 2.3-.4 3-1.7 1-1.8.8-2.5-1.2-4.1-1.3-1.1-4.1-2.7-6.1-3.5-2.1-.9-3.8-2.2-3.8-2.9 0-.6 2.4-2.4 5.2-3.8 6.1-3.1 7-4.2 5.7-6.7-1.4-2.7-4.5-2.1-13.9 2.8zM233.3 164.2c-2.3 3.2-.9 4.5 11.2 10.2.8.4-1.9 2.8-3.5 3.1-.3.1-2.2 1-4.2 2-4.4 2.2-5.7 5-3.4 7.3 1.4 1.4 2.5 1 12.1-3.6 5.8-2.8 10.8-5.8 11.1-6.6.7-1.9-1.3-5.6-3.2-5.6-.8 0-3.2-1.1-5.4-2.5s-4-2.3-4-2c0 .2-1.6-.4-3.5-1.5-4.1-2.3-5.9-2.5-7.2-.8zM110.1 186.2c-.6 4.7-.4 41.5.2 47.1.9 7.2 1.6 12.5 2.3 15.7.2 1.4.6 3.6.9 5 .2 1.4.9 4.6 1.5 7.1.6 2.6 1.3 5.3 1.4 6 .5 2.7 1.8 7.4 2.3 8.9.3.8.7 2.4.9 3.5.1 1.1 1.5 5.8 2.9 10.5 1.5 4.7 2.9 9.5 3.2 10.7.3 1.3 1 2.3 1.6 2.3.6 0 .8.3.5.6-.7.6 2 9.3 3.5 11.1.5.7.7 1.3.4 1.3-.4 0 1.4 4.1 3.8 9.2 2.5 5 4.5 9.8 4.5 10.5 0 .7.5 1.3 1.1 1.3.5 0 .7.4.4 1-.3.5-.1 1 .4 1 .6 0 1 .3.9.8-.4 1 10.3 20.6 11.4 21 .4.2.6.8.2 1.3-.3.5 0 .9.5.9.6 0 1.1.5 1.1 1.1 0 .6 1.4 3.1 3 5.6 1.7 2.4 3 4.6 3 4.9 0 .4 3.2 4.9 6.3 8.9.4.5 1.8 2.4 3 4.1 3.2 4.5 8.9 11.5 11.4 14.1 1.2 1.3 2 2.3 1.7 2.3-.3 0 1.3 1.7 3.5 3.9 2.2 2.1 3.7 4.1 3.4 4.5-.4.3-.2.6.4.6.5 0 4.1 3 7.9 6.6 3.8 3.6 8.1 7.6 9.5 9 4.2 3.9 6.6 3.4 23.9-4.9 3.6-1.8 6.7-3.5 6.8-3.9.2-.5 1.1-.8 2-.8 1 0 2.8-.9 4.2-2 1.4-1.1 3.1-2 3.8-2 .6 0 1.2-.5 1.2-1 0-.6.9-1 2-1s2-.5 2-1c0-.6.7-1 1.5-1s1.5-.5 1.5-1c0-.6.6-1 1.3-1 .8 0 2.2-.9 3.2-2s2.4-2 3.1-2c.7 0 1.4-.4 1.6-.8.2-.5 2.6-2.3 5.3-4.2 2.8-1.9 5.5-3.9 6.1-4.5.6-.5 2.6-2.1 4.4-3.5 1.8-1.4 3.9-3.1 4.6-3.8.7-.6 1.5-1.2 1.9-1.2.3 0 1.6-1 2.8-2.3 1.3-1.2 4.2-3.8 6.6-5.7 8.3-6.9 30.5-29.5 37.6-38.5 5.7-7 6.7-8.3 9.2-11.3 1.3-1.5 2.3-3 2.3-3.3 0-.3.8-1.5 1.8-2.7 3.8-4.7 6-7.7 6-8.6 0-.5.5-1.2 1-1.5.5-.3 3.2-4.2 6-8.6 2.8-4.4 5.6-8.5 6.2-9.2.5-.7 1-1.9 1-2.7 0-.8.4-1.6.8-1.8.5-.2 3.2-5 6.1-10.8 2.9-5.8 5.6-11.2 6.1-12.1 2.7-5.3 9.2-23.4 11.5-32.4.5-1.7.9-3.5 1.1-4 2.1-7.2.6-7.2-7.3.2-9.6 9-14.7 13.6-18.3 16.3-1.8 1.4-4.6 3.7-6.2 5.2-1.6 1.5-4.7 4.2-7 6-2.2 1.8-4.6 3.9-5.3 4.5-.8.7-1.8 1.3-2.4 1.3-.6 0-1.1.3-1.1.8 0 .4-2.7 2.8-6 5.2-3.3 2.5-6 4.8-6 5.2 0 .5-.4.8-1 .8-.9 0-3.6 1.9-6.6 4.8-.8.7-1.4 1.1-1.4.7 0-.3-2.2 1.2-4.8 3.2-2.6 2.1-6.5 4.7-8.5 5.8-2 1.1-3.7 2.3-3.7 2.7 0 .5-.5.8-1.1.8-1.2 0-10.3 6-10.7 7.2-.2.4-1.2.8-2.3.8-1 0-1.9.3-1.9.8 0 .4-1.5 1.3-3.2 2.1-1.8.8-3.5 1.7-3.8 2-.5.6-4.4 2.7-13.7 7.6-2.4 1.2-4.1 2.4-3.8 2.6.2.3-.6.6-1.8.6-1.2.1-2.3.7-2.5 1.3-.2.5-1.5 1-2.8 1-1.3 0-2.4.4-2.4 1 0 .5-.9 1-1.9 1-1.1 0-2.2.4-2.5.9-.3.5-4.3 2.3-8.8 4.1-4.6 1.8-8.8 3.7-9.5 4.3-2.5 1.9-7.9 1.2-10.5-1.4-1.4-1.3-4.2-3.7-6.4-5.4-2.1-1.6-6.5-5.6-9.6-8.7-3.2-3.2-6-5.8-6.3-5.8-.5 0-2.3-1.8-14.5-15-4.7-5.1-9.2-10.1-10-11.2-.8-1.1-2.5-3.1-3.8-4.4-1.3-1.3-2-2.4-1.7-2.4.3 0-.4-1-1.5-2.3-5.9-6.4-8-9-8-9.7 0-.5-.6-1.5-1.3-2.2-.7-.7-2.6-3.1-4.2-5.3-1.7-2.2-3.8-4.9-4.7-5.9-1-1.1-2-2.8-2.4-3.8-.3-1-.9-1.8-1.3-1.8-.5 0-1.4-1.4-2.1-3-.7-1.7-1.6-3-2-3-.4 0-1-.8-1.4-1.8-.6-1.8-2.4-4.8-4.1-6.8-2.4-2.8-6.1-8.8-7.1-11.7-.3-.9-1.1-1.7-1.6-1.7s-.7-.4-.4-.9c.3-.4-.3-1.9-1.4-3.1-1.1-1.2-2.2-3.1-2.5-4.1-.4-1.1-1.1-1.9-1.7-1.9-.6 0-.8-.3-.5-.7.4-.3 0-1.5-1-2.5-.9-1-1.2-1.8-.7-1.8s.4-.4-.2-.8c-.6-.4-3.2-4.9-5.8-10-3.2-6.4-5.2-9.2-6.4-9.2-1.1 0-1.9.9-2.1 2.2z"/><path d="M184.2 225.7c-2.2.9-7.4 12.3-6.8 14.9l.6 2.4h41.4c35.4 0 41.5-.2 42.6-1.5 1-1.2.6-2.9-2.3-9l-3.6-7.5-35.3.1c-19.4 0-35.9.3-36.6.6zm64.4 6.2c2.8.1 5.4 2.5 4 3.8-.9.9-64.8.5-65.7-.4-1.7-1.7 1.3-3.2 7.1-3.5 4.4-.2 35.8-.2 54.6.1z"/></svg>